# xmcd CD database file
#
# Track frame offsets:
#	150
#	14736
#	26955
#	39446
#	54580
#	68006
#	82468
#	98037
#	110771
#	124597
#	138227
#	151082
#
# Disc length: 2219 seconds
#
# Revision: 1
# Processed by: cddbd v1.5.2PL0 Copyright (c) Steve Scherf et al.
# Submitted via: CDex 1.60beta1-cs1
#
DISCID=a308a90c
DTITLE=Original Dixieland Jazz Band (ODJB) - Original Dixieland Jazz Band  (1917-1918 Recordings)
DYEAR=1917
DGENRE=Jazz
TTITLE0=Livery Stable Blues (The first Jazz recording - 26/02/1917)
TTITLE1=Dixieland Jass Band One-Step (Introducing 'That Teasing Rag')
TTITLE2=At The Jazz Band Ball
TTITLE3=Ostrich Walk
TTITLE4=Skeleton Jangle
TTITLE5=Tiger Rag
TTITLE6=Bluin' The Blues
TTITLE7=Fidgety Feet (War Cloud)
TTITLE8=Sensation Rag
TTITLE9=Mournin' Blues
TTITLE10=Clarinet Marrmalade Blues
TTITLE11=Laz Daddy
EXTD=YEAR: 1917
EXTT0=
EXTT1=
EXTT2=
EXTT3=
EXTT4=
EXTT5=
EXTT6=
EXTT7=
EXTT8=
EXTT9=
EXTT10=
EXTT11=
PLAYORDER=
